<?xml version="1.0" encoding="UTF-8" standalone="no"?><!DOCTYPE svg PUBLIC "-//W3C//DTD SVG 1.1//EN" "http://www.w3.org/Graphics/SVG/1.1/DTD/svg11.dtd"><svg xmlns="http://www.w3.org/2000/svg" xmlns:xlink="http://www.w3.org/1999/xlink" version="1.1" width="51pt" height="50pt" viewBox="0 0 51 50"><g enable-background="new"><path transform="matrix(1,0,0,-1,14.427246,37.57202)" d="M 4.49986 3.857117 C 3.43474 3.857117 2.571289 2.993665 2.571289 1.928544 L 2.571289 -.000026 L 17.99986 -.000026 L 17.99986 1.928546 C 17.99986 2.993666 17.136408 3.857117 16.071288 3.857117 L 4.49986 3.857117 Z" fill="#cd7900"/><path transform="matrix(1,0,0,-1,14.427246,37.57202)" d="M 1.285714 -.000244 C .575634 -.000244 0 -.575879 0 -1.285959 L 0 -2.571673 C 0 -3.281753 .575636 -3.857387 1.285717 -3.857387 L 19.285714 -3.857387 C 19.995795 -3.857387 20.571429 -3.281752 20.571429 -2.571672 L 20.571429 -1.285958 C 20.571429 -.575878 19.995793 -.000244 19.285712 -.000244 L 1.285714 -.000244 Z" fill="#cd7900"/><path transform="matrix(1,0,0,-1,8,33.714296)" d="M 7.043478 25.714295 C 5.993794 25.714295 5.142857 24.863358 5.142857 23.813673 L 5.142857 21.857151 L 1.78022 21.857151 C .797032 21.857151 0 21.06012 0 20.076931 L 0 17.357151 C 0 13.703304 2.771205 10.696709 6.326492 10.324492 C 7.846874 7.236086 10.704011 4.924202 14.142857 4.143887 L 14.142857 .000008 L 19.285714 .000008 L 19.285714 4.143887 C 22.72456 4.924202 25.5817 7.236086 27.10208 10.324492 C 30.657368 10.696709 33.42857 13.703304 33.42857 17.357151 L 33.42857 20.076931 C 33.42857 21.06012 32.63154 21.857151 31.648352 21.857151 L 28.285714 21.857151 L 28.285714 23.813673 C 28.285714 24.863358 27.434779 25.714295 26.385094 25.714295 L 7.043478 25.714295 Z M 28.070273 13.194721 C 28.211638 13.917513 28.285714 14.664395 28.285714 15.428579 L 28.285714 19.285723 L 30.857144 19.285723 L 30.857144 17.357151 C 30.857144 15.478422 29.70584 13.868598 28.070273 13.194721 Z M 5.142857 19.285723 L 5.142857 15.42858 C 5.142857 14.664396 5.216935 13.917513 5.3583 13.194721 C 3.722733 13.868598 2.571429 15.478422 2.571429 17.357151 L 2.571429 19.285723 L 5.142857 19.285723 Z" fill="#ffc800" fill-rule="evenodd"/><path transform="matrix(1,0,0,-1,13.142578,29.857789)" d="M 0 19.956498 C 0 21.00618 .850937 21.857117 1.900621 21.857117 L 21.242239 21.857117 C 22.291924 21.857117 23.142859 21.00618 23.142859 19.956496 L 23.142859 11.571404 C 23.142859 5.180681 17.962155 -.000023 11.571429 -.000023 C 5.180706 -.000023 0 5.180681 0 11.571404 L 0 19.956498 Z" fill="#ffd900"/><path transform="matrix(1,0,0,-1,18.37793,29.822388)" d="M 15.566508 21.821717 L 8.293411 21.821717 L 1.191996 14.720303 C .187791 13.716097 .187791 12.087958 1.191996 11.083754 C 2.196201 10.079548 3.824343 10.079551 4.828548 11.083756 L 15.566508 21.821717 Z M 5.42227 .000006 C 3.430821 .155313 1.580894 .814758 0 1.850834 L 17.905934 19.756766 L 17.905934 12.483669 L 5.42227 .000006 Z" fill="#ffeb77" fill-opacity=".7" fill-rule="evenodd"/></g></svg>